<svg xmlns="http://www.w3.org/2000/svg" xmlns:xlink="http://www.w3.org/1999/xlink" width="755" zoomAndPan="magnify" viewBox="0 0 567 850.499975" height="1133" preserveAspectRatio="xMidYMid meet" version="1.0"><defs><clipPath id="2ed891998d"><path d="M 113.484375 254.96875 L 453.785156 254.96875 L 453.785156 595.269531 L 113.484375 595.269531 Z M 113.484375 254.96875 " clip-rule="nonzero"/></clipPath></defs><g clip-path="url(#2ed891998d)"><path fill="#34b226" d="M 453.785156 425.117188 C 453.785156 427.902344 453.71875 430.6875 453.582031 433.46875 C 453.445312 436.25 453.238281 439.023438 452.964844 441.796875 C 452.695312 444.566406 452.351562 447.328125 451.945312 450.085938 C 451.535156 452.839844 451.058594 455.582031 450.515625 458.3125 C 449.972656 461.042969 449.363281 463.761719 448.6875 466.460938 C 448.011719 469.164062 447.265625 471.84375 446.460938 474.511719 C 445.652344 477.175781 444.777344 479.816406 443.839844 482.441406 C 442.902344 485.0625 441.898438 487.660156 440.832031 490.230469 C 439.769531 492.804688 438.640625 495.347656 437.449219 497.867188 C 436.257812 500.382812 435.007812 502.871094 433.695312 505.328125 C 432.382812 507.78125 431.007812 510.203125 429.578125 512.59375 C 428.148438 514.980469 426.65625 517.332031 425.109375 519.648438 C 423.5625 521.964844 421.960938 524.238281 420.300781 526.476562 C 418.644531 528.714844 416.929688 530.90625 415.164062 533.058594 C 413.398438 535.210938 411.578125 537.320312 409.707031 539.382812 C 407.839844 541.445312 405.917969 543.464844 403.949219 545.433594 C 401.980469 547.402344 399.964844 549.320312 397.902344 551.191406 C 395.839844 553.0625 393.730469 554.878906 391.578125 556.644531 C 389.425781 558.414062 387.230469 560.125 384.992188 561.785156 C 382.757812 563.441406 380.480469 565.046875 378.164062 566.59375 C 375.851562 568.140625 373.5 569.628906 371.109375 571.0625 C 368.722656 572.492188 366.300781 573.863281 363.84375 575.175781 C 361.386719 576.488281 358.902344 577.742188 356.382812 578.933594 C 353.867188 580.121094 351.320312 581.25 348.75 582.316406 C 346.175781 583.382812 343.578125 584.382812 340.957031 585.320312 C 338.335938 586.261719 335.691406 587.132812 333.027344 587.941406 C 330.363281 588.75 327.679688 589.492188 324.980469 590.167969 C 322.277344 590.84375 319.5625 591.457031 316.832031 592 C 314.097656 592.542969 311.355469 593.019531 308.601562 593.425781 C 305.847656 593.835938 303.085938 594.175781 300.3125 594.449219 C 297.542969 594.722656 294.765625 594.925781 291.984375 595.0625 C 289.203125 595.199219 286.421875 595.269531 283.636719 595.269531 C 280.851562 595.269531 278.066406 595.199219 275.285156 595.0625 C 272.503906 594.925781 269.730469 594.722656 266.957031 594.449219 C 264.1875 594.175781 261.425781 593.835938 258.667969 593.425781 C 255.914062 593.019531 253.171875 592.542969 250.441406 592 C 247.710938 591.457031 244.992188 590.84375 242.292969 590.167969 C 239.589844 589.492188 236.910156 588.75 234.242188 587.941406 C 231.578125 587.132812 228.9375 586.261719 226.3125 585.320312 C 223.691406 584.382812 221.09375 583.382812 218.523438 582.316406 C 215.949219 581.25 213.40625 580.121094 210.886719 578.933594 C 208.371094 577.742188 205.882812 576.488281 203.425781 575.175781 C 200.972656 573.863281 198.550781 572.492188 196.160156 571.0625 C 193.773438 569.628906 191.421875 568.140625 189.105469 566.59375 C 186.789062 565.046875 184.515625 563.441406 182.277344 561.785156 C 180.039062 560.125 177.847656 558.414062 175.695312 556.644531 C 173.542969 554.878906 171.433594 553.0625 169.371094 551.191406 C 167.308594 549.320312 165.289062 547.402344 163.320312 545.433594 C 161.351562 543.464844 159.433594 541.445312 157.5625 539.382812 C 155.691406 537.320312 153.875 535.210938 152.109375 533.058594 C 150.339844 530.90625 148.628906 528.714844 146.96875 526.476562 C 145.3125 524.238281 143.707031 521.964844 142.160156 519.648438 C 140.613281 517.332031 139.125 514.980469 137.691406 512.59375 C 136.261719 510.203125 134.890625 507.78125 133.578125 505.328125 C 132.265625 502.871094 131.011719 500.382812 129.820312 497.867188 C 128.632812 495.347656 127.503906 492.804688 126.4375 490.230469 C 125.371094 487.660156 124.371094 485.0625 123.433594 482.441406 C 122.492188 479.816406 121.621094 477.175781 120.8125 474.511719 C 120.003906 471.84375 119.261719 469.164062 118.585938 466.460938 C 117.910156 463.761719 117.296875 461.042969 116.753906 458.3125 C 116.210938 455.582031 115.734375 452.839844 115.328125 450.085938 C 114.917969 447.328125 114.578125 444.566406 114.304688 441.796875 C 114.03125 439.023438 113.828125 436.25 113.691406 433.46875 C 113.554688 430.6875 113.484375 427.902344 113.484375 425.117188 C 113.484375 422.332031 113.554688 419.550781 113.691406 416.769531 C 113.828125 413.988281 114.03125 411.210938 114.304688 408.441406 C 114.578125 405.667969 114.917969 402.90625 115.328125 400.152344 C 115.734375 397.398438 116.210938 394.65625 116.753906 391.921875 C 117.296875 389.191406 117.910156 386.476562 118.585938 383.773438 C 119.261719 381.074219 120.003906 378.390625 120.8125 375.726562 C 121.621094 373.0625 122.492188 370.417969 123.433594 367.796875 C 124.371094 365.175781 125.371094 362.578125 126.4375 360.003906 C 127.503906 357.433594 128.632812 354.886719 129.820312 352.371094 C 131.011719 349.851562 132.265625 347.367188 133.578125 344.910156 C 134.890625 342.453125 136.261719 340.03125 137.691406 337.644531 C 139.125 335.253906 140.613281 332.902344 142.160156 330.585938 C 143.707031 328.273438 145.3125 325.996094 146.96875 323.761719 C 148.628906 321.523438 150.339844 319.328125 152.109375 317.175781 C 153.875 315.023438 155.691406 312.914062 157.5625 310.851562 C 159.433594 308.789062 161.351562 306.773438 163.320312 304.804688 C 165.289062 302.835938 167.308594 300.914062 169.371094 299.046875 C 171.433594 297.175781 173.542969 295.355469 175.695312 293.589844 C 177.847656 291.824219 180.039062 290.109375 182.277344 288.453125 C 184.515625 286.792969 186.789062 285.191406 189.105469 283.644531 C 191.421875 282.097656 193.773438 280.605469 196.160156 279.175781 C 198.550781 277.742188 200.972656 276.371094 203.425781 275.058594 C 205.882812 273.746094 208.371094 272.496094 210.886719 271.304688 C 213.40625 270.113281 215.949219 268.984375 218.523438 267.921875 C 221.09375 266.855469 223.691406 265.851562 226.3125 264.914062 C 228.9375 263.976562 231.578125 263.101562 234.242188 262.292969 C 236.910156 261.488281 239.589844 260.742188 242.292969 260.066406 C 244.992188 259.390625 247.710938 258.78125 250.441406 258.238281 C 253.171875 257.695312 255.914062 257.21875 258.667969 256.808594 C 261.425781 256.402344 264.1875 256.058594 266.957031 255.789062 C 269.730469 255.515625 272.503906 255.308594 275.285156 255.171875 C 278.066406 255.035156 280.851562 254.96875 283.636719 254.96875 C 286.421875 254.96875 289.203125 255.035156 291.984375 255.171875 C 294.765625 255.308594 297.542969 255.515625 300.3125 255.789062 C 303.085938 256.058594 305.847656 256.402344 308.601562 256.808594 C 311.355469 257.21875 314.097656 257.695312 316.832031 258.238281 C 319.5625 258.78125 322.277344 259.390625 324.980469 260.066406 C 327.679688 260.742188 330.363281 261.488281 333.027344 262.292969 C 335.691406 263.101562 338.335938 263.976562 340.957031 264.914062 C 343.578125 265.851562 346.175781 266.855469 348.75 267.921875 C 351.320312 268.984375 353.867188 270.113281 356.382812 271.304688 C 358.902344 272.496094 361.386719 273.746094 363.84375 275.058594 C 366.300781 276.371094 368.722656 277.742188 371.109375 279.175781 C 373.5 280.605469 375.851562 282.097656 378.164062 283.644531 C 380.480469 285.191406 382.757812 286.792969 384.992188 288.453125 C 387.230469 290.109375 389.425781 291.824219 391.578125 293.589844 C 393.730469 295.355469 395.839844 297.175781 397.902344 299.046875 C 399.964844 300.914062 401.980469 302.835938 403.949219 304.804688 C 405.917969 306.773438 407.839844 308.789062 409.707031 310.851562 C 411.578125 312.914062 413.398438 315.023438 415.164062 317.175781 C 416.929688 319.328125 418.644531 321.523438 420.300781 323.761719 C 421.960938 325.996094 423.5625 328.273438 425.109375 330.585938 C 426.65625 332.902344 428.148438 335.253906 429.578125 337.644531 C 431.011719 340.03125 432.382812 342.453125 433.695312 344.910156 C 435.007812 347.367188 436.257812 349.851562 437.449219 352.371094 C 438.640625 354.886719 439.769531 357.433594 440.832031 360.003906 C 441.898438 362.578125 442.902344 365.175781 443.839844 367.796875 C 444.777344 370.417969 445.652344 373.0625 446.460938 375.726562 C 447.265625 378.390625 448.011719 381.074219 448.6875 383.773438 C 449.363281 386.476562 449.972656 389.191406 450.515625 391.921875 C 451.058594 394.65625 451.535156 397.398438 451.945312 400.152344 C 452.351562 402.90625 452.695312 405.667969 452.964844 408.441406 C 453.238281 411.210938 453.445312 413.988281 453.582031 416.769531 C 453.71875 419.550781 453.785156 422.332031 453.785156 425.117188 Z M 453.785156 425.117188 " fill-opacity="1" fill-rule="nonzero"/></g><path fill="#ffffff" d="M 204.855469 337.3125 C 184.59375 359.515625 182.199219 408.042969 241.390625 467.300781 C 241.410156 467.320312 241.425781 467.335938 241.445312 467.355469 C 241.464844 467.375 241.480469 467.390625 241.5 467.410156 C 300.757812 526.609375 349.226562 524.144531 371.425781 503.882812 C 379.851562 496.191406 383.460938 487.984375 384.894531 481.328125 C 386.496094 473.902344 382.425781 466.417969 375.476562 463.355469 L 339.144531 447.332031 C 336.164062 446.019531 332.679688 446.78125 330.535156 449.230469 C 326.253906 454.113281 318.910156 462.40625 312.757812 468.949219 C 303.054688 469.59375 278.429688 454.03125 266.566406 442.167969 C 254.703125 430.304688 239.136719 405.679688 239.785156 395.976562 C 246.324219 389.828125 254.621094 382.480469 259.5 378.199219 C 261.953125 376.046875 262.714844 372.570312 261.402344 369.589844 L 245.378906 333.257812 C 242.316406 326.308594 234.824219 322.238281 227.40625 323.839844 C 220.753906 325.28125 212.539062 328.894531 204.855469 337.3125 Z M 204.855469 337.3125 " fill-opacity="1" fill-rule="nonzero"/></svg>