<svg xmlns="http://www.w3.org/2000/svg" xmlns:xlink="http://www.w3.org/1999/xlink" width="755" zoomAndPan="magnify" viewBox="0 0 567 850.499975" height="1133" preserveAspectRatio="xMidYMid meet" version="1.0"><defs><clipPath id="124d19f6f1"><path d="M 113.195312 254.675781 L 453.492188 254.675781 L 453.492188 594.976562 L 113.195312 594.976562 Z M 113.195312 254.675781 " clip-rule="nonzero"/></clipPath></defs><g clip-path="url(#124d19f6f1)"><path fill="#ff3722" d="M 453.492188 424.824219 C 453.492188 427.609375 453.425781 430.394531 453.289062 433.175781 C 453.152344 435.957031 452.945312 438.734375 452.675781 441.503906 C 452.402344 444.273438 452.0625 447.039062 451.652344 449.792969 C 451.242188 452.546875 450.765625 455.289062 450.222656 458.019531 C 449.679688 460.75 449.070312 463.46875 448.394531 466.167969 C 447.71875 468.871094 446.976562 471.554688 446.167969 474.21875 C 445.359375 476.882812 444.484375 479.527344 443.546875 482.148438 C 442.609375 484.769531 441.605469 487.367188 440.542969 489.941406 C 439.476562 492.511719 438.347656 495.058594 437.15625 497.574219 C 435.964844 500.09375 434.714844 502.578125 433.402344 505.035156 C 432.089844 507.488281 430.71875 509.914062 429.285156 512.300781 C 427.855469 514.6875 426.363281 517.039062 424.816406 519.355469 C 423.269531 521.671875 421.667969 523.949219 420.007812 526.183594 C 418.351562 528.421875 416.636719 530.617188 414.871094 532.769531 C 413.105469 534.921875 411.285156 537.027344 409.417969 539.089844 C 407.546875 541.15625 405.625 543.171875 403.65625 545.140625 C 401.6875 547.109375 399.671875 549.027344 397.609375 550.898438 C 395.546875 552.769531 393.4375 554.585938 391.285156 556.355469 C 389.132812 558.121094 386.9375 559.832031 384.703125 561.492188 C 382.464844 563.152344 380.1875 564.753906 377.875 566.300781 C 375.558594 567.847656 373.207031 569.335938 370.816406 570.769531 C 368.429688 572.199219 366.007812 573.570312 363.550781 574.886719 C 361.097656 576.199219 358.609375 577.449219 356.09375 578.640625 C 353.574219 579.832031 351.03125 580.957031 348.457031 582.023438 C 345.882812 583.089844 343.289062 584.089844 340.664062 585.03125 C 338.042969 585.96875 335.398438 586.839844 332.734375 587.648438 C 330.070312 588.457031 327.386719 589.199219 324.6875 589.875 C 321.984375 590.554688 319.269531 591.164062 316.539062 591.707031 C 313.808594 592.25 311.0625 592.726562 308.308594 593.132812 C 305.554688 593.542969 302.792969 593.882812 300.019531 594.15625 C 297.25 594.429688 294.472656 594.632812 291.691406 594.769531 C 288.910156 594.90625 286.128906 594.976562 283.34375 594.976562 C 280.558594 594.976562 277.777344 594.90625 274.996094 594.769531 C 272.214844 594.632812 269.4375 594.429688 266.667969 594.15625 C 263.894531 593.882812 261.132812 593.542969 258.378906 593.132812 C 255.621094 592.726562 252.878906 592.25 250.148438 591.707031 C 247.417969 591.164062 244.703125 590.554688 242 589.875 C 239.300781 589.199219 236.617188 588.457031 233.953125 587.648438 C 231.285156 586.839844 228.644531 585.96875 226.023438 585.03125 C 223.398438 584.089844 220.804688 583.089844 218.230469 582.023438 C 215.65625 580.957031 213.113281 579.832031 210.59375 578.640625 C 208.078125 577.449219 205.589844 576.199219 203.136719 574.886719 C 200.679688 573.570312 198.257812 572.199219 195.867188 570.769531 C 193.480469 569.335938 191.128906 567.847656 188.8125 566.300781 C 186.5 564.753906 184.222656 563.152344 181.984375 561.492188 C 179.75 559.832031 177.554688 558.121094 175.402344 556.355469 C 173.25 554.585938 171.140625 552.769531 169.078125 550.898438 C 167.015625 549.027344 165 547.109375 163.03125 545.140625 C 161.058594 543.171875 159.140625 541.15625 157.269531 539.089844 C 155.402344 537.027344 153.582031 534.921875 151.816406 532.769531 C 150.050781 530.617188 148.335938 528.421875 146.679688 526.183594 C 145.019531 523.949219 143.417969 521.671875 141.871094 519.355469 C 140.320312 517.039062 138.832031 514.6875 137.402344 512.300781 C 135.96875 509.914062 134.597656 507.488281 133.285156 505.035156 C 131.972656 502.578125 130.71875 500.09375 129.53125 497.574219 C 128.339844 495.058594 127.210938 492.511719 126.144531 489.941406 C 125.078125 487.367188 124.078125 484.769531 123.140625 482.148438 C 122.203125 479.527344 121.328125 476.882812 120.519531 474.21875 C 119.710938 471.554688 118.96875 468.871094 118.292969 466.167969 C 117.617188 463.46875 117.007812 460.75 116.464844 458.019531 C 115.917969 455.289062 115.445312 452.546875 115.035156 449.792969 C 114.625 447.039062 114.285156 444.273438 114.011719 441.503906 C 113.738281 438.734375 113.535156 435.957031 113.398438 433.175781 C 113.261719 430.394531 113.195312 427.609375 113.195312 424.824219 C 113.195312 422.042969 113.261719 419.257812 113.398438 416.476562 C 113.535156 413.695312 113.738281 410.917969 114.011719 408.148438 C 114.285156 405.378906 114.625 402.613281 115.035156 399.859375 C 115.445312 397.105469 115.917969 394.363281 116.464844 391.632812 C 117.007812 388.898438 117.617188 386.183594 118.292969 383.484375 C 118.96875 380.78125 119.710938 378.097656 120.519531 375.433594 C 121.328125 372.769531 122.203125 370.125 123.140625 367.503906 C 124.078125 364.882812 125.078125 362.285156 126.144531 359.710938 C 127.210938 357.140625 128.339844 354.59375 129.53125 352.078125 C 130.71875 349.558594 131.972656 347.074219 133.285156 344.617188 C 134.597656 342.164062 135.96875 339.738281 137.402344 337.351562 C 138.832031 334.964844 140.320312 332.609375 141.871094 330.296875 C 143.417969 327.980469 145.019531 325.703125 146.679688 323.46875 C 148.335938 321.230469 150.050781 319.035156 151.816406 316.882812 C 153.582031 314.730469 155.402344 312.625 157.269531 310.558594 C 159.140625 308.496094 161.058594 306.480469 163.03125 304.511719 C 165 302.542969 167.015625 300.625 169.078125 298.753906 C 171.140625 296.882812 173.25 295.066406 175.402344 293.296875 C 177.554688 291.53125 179.75 289.820312 181.984375 288.160156 C 184.222656 286.5 186.5 284.898438 188.8125 283.351562 C 191.128906 281.804688 193.480469 280.316406 195.867188 278.882812 C 198.257812 277.453125 200.679688 276.078125 203.136719 274.765625 C 205.589844 273.453125 208.078125 272.203125 210.59375 271.011719 C 213.113281 269.820312 215.65625 268.695312 218.230469 267.628906 C 220.804688 266.5625 223.398438 265.558594 226.023438 264.621094 C 228.644531 263.683594 231.285156 262.8125 233.953125 262.003906 C 236.617188 261.195312 239.300781 260.453125 242 259.773438 C 244.703125 259.097656 247.417969 258.488281 250.148438 257.945312 C 252.878906 257.402344 255.621094 256.925781 258.378906 256.519531 C 261.132812 256.109375 263.894531 255.769531 266.667969 255.496094 C 269.4375 255.222656 272.214844 255.019531 274.996094 254.882812 C 277.777344 254.746094 280.558594 254.675781 283.34375 254.675781 C 286.128906 254.675781 288.910156 254.746094 291.691406 254.882812 C 294.472656 255.019531 297.25 255.222656 300.019531 255.496094 C 302.792969 255.769531 305.554688 256.109375 308.308594 256.519531 C 311.0625 256.925781 313.808594 257.402344 316.539062 257.945312 C 319.269531 258.488281 321.984375 259.097656 324.6875 259.773438 C 327.386719 260.453125 330.070312 261.195312 332.734375 262.003906 C 335.398438 262.8125 338.042969 263.683594 340.664062 264.621094 C 343.289062 265.558594 345.882812 266.5625 348.457031 267.628906 C 351.03125 268.695312 353.574219 269.820312 356.09375 271.011719 C 358.609375 272.203125 361.097656 273.453125 363.550781 274.765625 C 366.007812 276.078125 368.429688 277.453125 370.816406 278.882812 C 373.207031 280.316406 375.558594 281.804688 377.875 283.351562 C 380.1875 284.898438 382.464844 286.5 384.703125 288.160156 C 386.9375 289.820312 389.132812 291.53125 391.285156 293.296875 C 393.4375 295.066406 395.546875 296.882812 397.609375 298.753906 C 399.671875 300.625 401.6875 302.542969 403.65625 304.511719 C 405.625 306.480469 407.546875 308.496094 409.417969 310.558594 C 411.285156 312.625 413.105469 314.730469 414.871094 316.882812 C 416.636719 319.035156 418.351562 321.230469 420.007812 323.46875 C 421.667969 325.703125 423.269531 327.980469 424.816406 330.296875 C 426.363281 332.609375 427.855469 334.964844 429.285156 337.351562 C 430.71875 339.738281 432.089844 342.164062 433.402344 344.617188 C 434.714844 347.074219 435.96875 349.558594 437.15625 352.078125 C 438.347656 354.59375 439.476562 357.140625 440.542969 359.710938 C 441.605469 362.285156 442.609375 364.882812 443.546875 367.503906 C 444.484375 370.125 445.359375 372.769531 446.167969 375.433594 C 446.976562 378.097656 447.71875 380.78125 448.394531 383.484375 C 449.070312 386.183594 449.679688 388.898438 450.222656 391.632812 C 450.765625 394.363281 451.242188 397.105469 451.652344 399.859375 C 452.0625 402.613281 452.402344 405.378906 452.675781 408.148438 C 452.945312 410.917969 453.152344 413.695312 453.289062 416.476562 C 453.425781 419.257812 453.492188 422.042969 453.492188 424.824219 Z M 453.492188 424.824219 " fill-opacity="1" fill-rule="nonzero"/></g><path fill="#ffffff" d="M 401.128906 432.578125 C 399.753906 402.558594 367.140625 366.539062 283.378906 366.5 C 283.351562 366.5 283.328125 366.5 283.304688 366.5 C 283.277344 366.5 283.253906 366.5 283.226562 366.5 C 199.464844 366.539062 166.933594 402.558594 165.566406 432.578125 C 165.046875 443.972656 168.296875 452.328125 171.992188 458.054688 C 176.109375 464.4375 184.28125 466.851562 191.359375 464.101562 L 228.378906 449.742188 C 231.414062 448.566406 233.339844 445.5625 233.121094 442.3125 C 232.699219 435.832031 232.027344 424.773438 231.746094 415.800781 C 238.152344 408.476562 266.574219 402.074219 283.34375 402.074219 C 300.121094 402.074219 328.535156 408.476562 334.941406 415.800781 C 334.667969 424.773438 333.992188 435.832031 333.566406 442.3125 C 333.355469 445.5625 335.273438 448.566406 338.308594 449.742188 L 375.328125 464.101562 C 382.40625 466.847656 390.578125 464.4375 394.695312 458.054688 C 398.390625 452.328125 401.644531 443.972656 401.128906 432.578125 Z M 401.128906 432.578125 " fill-opacity="1" fill-rule="nonzero"/></svg>